<svg xmlns="http://www.w3.org/2000/svg" viewBox="0 0 76 75"><g fill="none"><ellipse cx="38.3" cy="37.5" fill="#FF866E" rx="37.47" ry="37.5"/><path fill="#000000" d="M43.93 22.76H30.5c-.7 0-1.25.56-1.25 1.25v16.25c0 .7.56 1.25 1.25 1.25h13.43l8.53 8.54a2.5 2.5 0 0 0 4.26-1.76V16a2.5 2.5 0 0 0-4.26-1.76l-8.53 8.52z"/><polygon fill="#FFFFFF" points="45.482 26.512 32.993 26.512 32.993 37.763 45.482 37.763 52.976 45.263 52.976 19.012"/><rect width="5.62" height="11.25" x="34.24" y="26.51" fill="#FF866E" transform="rotate(180 37.052 32.138)"/><rect width="5.62" height="11.25" x="39.86" y="26.51" fill="#FF866E" opacity=".5" transform="rotate(180 42.672 32.138)"/><path fill="#FFFFFF" d="M51.73 22.04v20.21l-5.41-5.36-.36-.37H34.2v-8.75h11.76l.36-.36 5.36-5.36.05-.01zm1.2-3l-7.5 7.5H32.94v11.25h12.5l7.49 7.5V19.04z"/><rect width="22.48" height="3.75" x="17.38" y="45.26" fill="#000000" rx="1.25"/><rect width="22.48" height="3.75" x="17.38" y="52.76" fill="#000000" rx="1.25"/></g></svg>