<svg xmlns="http://www.w3.org/2000/svg" viewBox="0 0 76 75"><g fill="none"><ellipse cx="38.22" cy="37.5" fill="#FF9BEE" rx="37.47" ry="37.5"/><path fill="#000000" d="M18.23 20.31h23.73c.7 0 1.25.56 1.25 1.25v25H18.23c-.69 0-1.25-.56-1.25-1.25V21.56c0-.69.56-1.25 1.25-1.25z"/><rect width="18.73" height="18.75" x="20.73" y="24.06" fill="#FFFFFF"/><path fill="#FFFFFF" d="M38.22 25.31v16.25H21.98V25.31h16.24zm1.24-1.25H20.73v18.75h18.73V24.06z"/><rect width="5.62" height="16.25" x="32.59" y="25.31" fill="#FF9BEE"/><rect width="5.62" height="16.25" x="26.98" y="25.31" fill="#FF9BEE" opacity=".5"/><ellipse cx="46.33" cy="46.56" fill="#000000" rx="13.11" ry="13.13"/><ellipse cx="46.33" cy="46.56" fill="#FFFFFF" rx="9.37" ry="9.38"/><path fill="#FF9BEE" d="M48.83 37.54v18.05a9.38 9.38 0 0 0 5.62-4.37V41.9a9.38 9.38 0 0 0-5.62-4.36z"/><path fill="#FF9BEE" d="M43.21 55.4c1.8.65 3.77.72 5.62.2V37.54a9.18 9.18 0 0 0-5.62.2V55.4z" opacity=".5"/><path fill="#FFFFFF" d="M46.33 38.44a8.12 8.12 0 1 1 0 16.24 8.12 8.12 0 0 1 0-16.24zm0-1.25a9.37 9.37 0 1 0 .01 18.74 9.37 9.37 0 0 0 0-18.74z"/></g></svg>