<svg xmlns="http://www.w3.org/2000/svg" viewBox="0 0 76 75"><g fill="none"><ellipse cx="38.13" cy="37.5" fill="#DA57C8" rx="37.47" ry="37.5"/><path fill="#FFFFFF" d="M45 25.63c-2.46 0-4.87.76-6.87 2.2A11.86 11.86 0 0 0 22.4 45.4a11.86 11.86 0 0 0 15.73 1.75 11.86 11.86 0 0 0 18.15-13.39A11.87 11.87 0 0 0 45 25.61v.02z"/><path fill="#DA57C8" d="M19.4 37.5c0 1.73.38 3.43 1.1 5h35.25a11.82 11.82 0 0 0 1.11-5v-.63H19.43l-.03.63z" opacity=".5"/><path fill="#DA57C8" d="M20.5 42.5a11.9 11.9 0 0 0 5.48 5.63h10.55c.55-.28 1.08-.6 1.59-.96.5.36 1.03.68 1.58.95h10.56a11.9 11.9 0 0 0 5.47-5.62H20.5z"/><path fill="#FFFFFF" d="M31.26 26.88a10.62 10.62 0 1 1 0 21.24 10.62 10.62 0 0 1 0-21.24zm0-1.25a11.87 11.87 0 1 0 .01 23.73 11.87 11.87 0 0 0-.01-23.73z"/><path fill="#FFFFFF" d="M45 26.88a10.62 10.62 0 1 1-.01 21.24 10.62 10.62 0 0 1 0-21.24zm0-1.25a11.87 11.87 0 1 0 0 23.73 11.87 11.87 0 0 0 0-23.73z"/><path fill="#000000" d="M45 21.88A15.62 15.62 0 1 0 45 53.1 15.62 15.62 0 0 0 45 21.88zm0 27.5a11.87 11.87 0 1 1 0-23.74 11.87 11.87 0 0 1 0 23.73z"/><path fill="#000000" d="M31.26 21.88a15.62 15.62 0 1 0 .01 31.23 15.62 15.62 0 0 0-.01-31.23zm0 27.5a11.87 11.87 0 1 1 .01-23.74 11.87 11.87 0 0 1-.01 23.73z"/><polygon fill="#FFFFFF" points="33.92 36.212 33.92 39.263 35.944 44.1 38.129 46.288 40.165 44.5 42.188 40.2 42.188 35.9"/></g></svg>