<svg xmlns="http://www.w3.org/2000/svg" viewBox="0 0 76 75"><g fill="none"><ellipse cx="38.04" cy="37.5" fill="#943CFF" rx="37.47" ry="37.5"/><path fill="#000000" d="M29.83 13.75a2.5 2.5 0 0 0-2.34 1.63L26.88 17a58.26 58.26 0 0 0 0 41.02l.61 1.63a2.5 2.5 0 0 0 2.34 1.63h16.5a2.5 2.5 0 0 0 2.5-2.5V44.4a2.5 2.5 0 0 0-2.5-2.5h-7.39c-.31-2.9-.31-5.84 0-8.75h7.33a2.5 2.5 0 0 0 2.5-2.5V16.27a2.5 2.5 0 0 0-2.5-2.5l-16.44-.02z"/><path fill="#FFFFFF" d="M45.03 17.5h-14.4l-.3.81a54.5 54.5 0 0 0 0 38.38l.3.81h14.4V45.62H35.7a45.2 45.2 0 0 1 0-16.24h9.33V17.5z"/><path fill="#FFFFFF" d="M31.5 18.75a53.26 53.26 0 0 0 0 37.5h12.28v-9.38h-9.12a46.68 46.68 0 0 1 0-18.74h9.12v-9.38H31.5z"/><path fill="#943CFF" d="M34.66 28.13h5.76c.74-3.25 1.87-6.4 3.37-9.38h-6.25a47.27 47.27 0 0 0-2.88 9.38zm0 18.75h5.76c.74 3.24 1.87 6.4 3.37 9.37h-6.25a47.27 47.27 0 0 1-2.88-9.38z" opacity=".5"/><path fill="#943CFF" d="M37.6 56.25a47.32 47.32 0 0 1 0-37.5h-6.06a52.92 52.92 0 0 0 0 37.5h6.05z"/></g></svg>