<svg xmlns="http://www.w3.org/2000/svg" viewBox="0 0 76 75"><g fill="none"><ellipse cx="37.96" cy="37.5" fill="#4A7AFA" rx="37.47" ry="37.5"/><path fill="#000000" d="M55.8 50.94l-8.83-7.29c5.01-6.53 4.1-15.83-2.09-21.26a15.6 15.6 0 0 0-21.33.7 15.63 15.63 0 0 0-.7 21.35 15.6 15.6 0 0 0 21.24 2.1l7.28 8.82a3.13 3.13 0 1 0 4.42-4.41v-.01z"/><ellipse cx="34.6" cy="34.13" fill="#FFFFFF" transform="rotate(-45 34.602 34.128)" rx="11.86" ry="11.88"/><path fill="#4A7AFA" d="M44.73 31.05L31.48 44.31a10.61 10.61 0 0 0 13.25-13.26z"/><path fill="#4A7AFA" d="M27.1 41.65a10.56 10.56 0 0 0 4.41 2.65l13.22-13.25c-.5-1.67-1.42-3.2-2.65-4.43l-.46-.42-14.99 15c.17.15.31.25.46.45z" opacity=".5"/></g></svg>