<svg xmlns="http://www.w3.org/2000/svg" viewBox="0 0 139 44"><path fill="#000000" fill-rule="evenodd" d="M12.88 44C7.44 44 3.15 43.03 0 41.1v-7.71c1.47.98 3.34 1.82 5.61 2.5 2.27.67 4.57 1.01 6.9 1.01 3.52 0 5.28-.86 5.28-2.59 0-.82-.51-1.46-1.53-1.91a8.18 8.18 0 0 0-1.6-.56l-2.27-.55-1.32-.34a11 11 0 0 1-1.13-.34c-3.64-.99-6.2-2.17-7.7-3.55S0 23.68 0 21.04c0-2.92 1.2-5.22 3.59-6.9 2.4-1.7 5.7-2.54 9.9-2.54 4.67 0 8.5.95 11.48 2.84v7.4a21.69 21.69 0 0 0-11.1-3.2c-3.28 0-4.91.82-4.91 2.47 0 .32.09.62.27.89.19.27.37.46.56.59l.89.55c.24.08.69.22 1.34.4.66.19 1.09.32 1.3.4l3.24.68c3.4.78 5.91 1.95 7.55 3.49 1.64 1.54 2.45 3.63 2.45 6.26 0 2.88-1.24 5.2-3.74 6.98-2.5 1.77-5.8 2.65-9.94 2.65zm32.07 0c-4.54 0-8.45-1.48-11.72-4.44-3.27-3.05-4.9-7-4.9-11.85 0-4.86 1.63-8.74 4.9-11.67a17.17 17.17 0 0 1 11.84-4.44c3.36 0 6.38.68 9.08 2.04v7.4a18.43 18.43 0 0 0-7.79-1.85 10 10 0 0 0-6.8 2.4 7.78 7.78 0 0 0-2.7 6.18c0 2.55.91 4.63 2.75 6.23a9.91 9.91 0 0 0 6.75 2.41 16 16 0 0 0 8.28-2.1v7.4A20.32 20.32 0 0 1 44.95 44zm43.54-7.53a3.7 3.7 0 0 0 1.78-.37v6.36c-1.1.86-2.66 1.3-4.67 1.3-3.47 0-5.78-1.32-6.93-3.96-2.7 2.8-6.21 4.2-10.55 4.2-3.35 0-6.07-.95-8.16-2.84-2.09-1.9-3.13-4.38-3.13-7.47 0-3.29 1.19-5.8 3.56-7.52a14.09 14.09 0 0 1 8.53-2.6c3.47 0 6.42.64 8.83 1.92v-.93c0-3.87-2.7-5.8-8.1-5.8-3.31 0-6.4.86-9.26 2.6v-7.29c3.1-1.65 6.9-2.47 11.35-2.47 4.42 0 7.93 1.07 10.55 3.21 2.7 2.14 4.05 5.1 4.05 8.89v10.43c0 1.56.72 2.34 2.15 2.34zm-10.74-2.34v-3.09a11.28 11.28 0 0 0-6.38-1.79c-1.84 0-3.3.35-4.39 1.05a3.33 3.33 0 0 0-1.62 2.96c0 1.32.49 2.32 1.47 3a6.9 6.9 0 0 0 3.99 1.01c3.03 0 5.34-1.05 6.93-3.14zM101.78 44c-2.54 0-4.53-.69-5.98-2.07-1.45-1.38-2.18-3.53-2.18-6.45V0h8.65v33.2c0 2.06.92 3.09 2.76 3.09.86 0 1.6-.19 2.21-.56v7.16c-1.47.74-3.3 1.11-5.46 1.11zm23.66 0c-4.78 0-8.81-1.48-12.08-4.44-3.28-2.97-4.91-6.9-4.91-11.79 0-4.57 1.47-8.4 4.41-11.48 2.95-3.12 6.8-4.69 11.54-4.69 4.42 0 7.95 1.59 10.61 4.75 2.66 3.17 3.99 7.02 3.99 11.54v2.29h-21.96a7.15 7.15 0 0 0 3.4 4.75c1.82 1.1 4.1 1.66 6.84 1.66 3.4 0 6.67-.9 9.82-2.71v6.97c-2.74 2.1-6.63 3.15-11.66 3.15zm-8.4-19.38h13.43a6.45 6.45 0 0 0-1.87-4.41 6.16 6.16 0 0 0-4.57-1.76c-1.92 0-3.52.57-4.78 1.7a6.76 6.76 0 0 0-2.21 4.47z"/></svg>